<svg xmlns="http://www.w3.org/2000/svg" width="25.299" height="25.299" viewBox="0 0 25.299 25.299"><defs><style>.a{fill:#1d2733;}.b{fill:#fff;}</style></defs><g transform="translate(-1.3 -1.3)"><path class="a" d="M11.089,0A11.089,11.089,0,1,1,0,11.089,11.089,11.089,0,0,1,11.089,0Z" transform="translate(2.916 2.582)"/><path class="b" d="M13.95,1.3A12.65,12.65,0,1,0,26.6,13.95,12.676,12.676,0,0,0,13.95,1.3ZM12.166,3.585,13.5,3.418a.279.279,0,1,1,0,.557,5.4,5.4,0,0,0-1.282.167h-.056c-.111,0-.279-.111-.279-.223A.353.353,0,0,1,12.166,3.585ZM7.04,6.705a.422.422,0,0,1-.223-.111.239.239,0,0,1,.056-.39,11.282,11.282,0,0,1,4.235-2.4c.167-.056.334.056.334.167a.271.271,0,0,1-.167.334A11.345,11.345,0,0,0,7.263,6.594C7.151,6.705,7.1,6.705,7.04,6.705Zm12.817,13.04H8.043a.263.263,0,0,1-.279-.279A6,6,0,0,1,12.389,13.5h0a3.276,3.276,0,0,1-1.5-2.842,3.121,3.121,0,0,1,6.241,0,3.39,3.39,0,0,1-1.449,2.9h0a6.006,6.006,0,0,1,4.514,5.907A.353.353,0,0,1,19.856,19.745Z" transform="translate(0 0)"/></g></svg>