<?xml version="1.0" encoding="utf-8"?>
<!-- Generator: Adobe Illustrator 24.0.2, SVG Export Plug-In . SVG Version: 6.00 Build 0)  -->
<svg version="1.1" id="Layer_1" xmlns="http://www.w3.org/2000/svg" xmlns:xlink="http://www.w3.org/1999/xlink" x="0px" y="0px"
	 viewBox="0 0 2000 830.2" style="enable-background:new 0 0 2000 830.2;" xml:space="preserve">
<style type="text/css">
	.st0{fill:#FFFFFF;}
</style>
<g>
	<path class="st0" d="M42.4,42.1h92.1c18,0,27,9,27,27v352.4L306.7,65.2c6-15.3,18-23,36-23h85.1c17.4,0,26,9,26,27v652.8
		c0,18-8.7,27-26,27h-92.1c-18,0-27-9-27-27V368.5L163.5,725.9c-6,15.4-18,23-36,23H42.4c-17.3,0-26-9-26-27V69.2
		C16.3,51.1,25,42.1,42.4,42.1z"/>
	<path class="st0" d="M1454,42.1h-163.2c-86.8,0-147.7,17.9-182.7,53.6c-35,35.7-52.6,100-52.6,192.7c0,60.8,8.7,108.3,26.2,142.3
		c17.5,34.1,44.3,58.1,80.5,72.2l-98.1,213.3c-10,21.9-4,32.8,18,32.8h98c18,0,30.3-7.6,37-22.8l84.7-198.4h28v194.2
		c0,18,9,27,27,27h97.1c17.4,0,26-9,26-27V69.2C1480.1,51.1,1471.4,42.1,1454,42.1z M1329.9,397.5h-40c-32.7,0-54.4-7.7-65.1-23
		c-10.7-15.3-16-44.1-16-86.1c0-42.7,5.5-71.7,16.5-87.1c11-15.3,33.2-23,66.6-23h38V397.5z"/>
	<path class="st0" d="M1957.6,42.1h-154.2c-90.1,0-155,25.5-194.7,76.6c-39.7,51.1-59.6,143.3-59.6,276.8
		c0,132.8,19.5,224.9,58.6,276.3c39,51.4,103.3,77.1,192.7,77.1h157.2c17.4,0,26-9,26-27V69.2C1983.7,51.1,1975,42.1,1957.6,42.1z
		 M1833.5,612.8h-33c-36.7,0-62.4-14.8-77.1-44.6c-14.7-29.7-22-87.3-22-172.7c0-86.1,7.7-143.8,23-173.2
		c15.4-29.4,41.7-44.1,79.1-44.1h30V612.8z"/>
	<path class="st0" d="M953.9,171.8c-17.7-53.7-42.2-90.4-73.6-110.1C849,42,806.9,32.1,754.2,32.1c-39.4,0-72.2,5.4-98.6,16
		C629.2,58.8,606,77.5,586,104.2c-20,26.7-34.5,63.9-43.6,111.6c-9,47.7-13.5,107.6-13.5,179.7c0,95.5,8.9,170,26.5,223.8
		c17.7,53.7,42.1,90.3,73.1,109.6c31,19.4,72.9,29,125.6,29c52.7,0,94.8-9.7,126.2-29c31.4-19.4,55.9-55.9,73.6-109.6
		c17.7-53.7,26.5-128.3,26.5-223.8C980.5,300.1,971.6,225.5,953.9,171.8z M846.7,536.3c0,5.5-6.9,8-10.5,3.8L755.9,445v91.3
		c0,5.5-6.9,8-10.5,3.8L626.1,398.8c-1.9-2.2-1.9-5.4,0-7.6l119.4-141.3c3.6-4.2,10.5-1.7,10.5,3.8V345l80.4-95.1
		c3.6-4.2,10.5-1.7,10.5,3.8V536.3z"/>
</g>
</svg>
