<?xml version="1.0" encoding="utf-8"?>
<!-- Generator: Adobe Illustrator 24.0.2, SVG Export Plug-In . SVG Version: 6.00 Build 0)  -->
<svg version="1.1" id="Layer_1" xmlns="http://www.w3.org/2000/svg" xmlns:xlink="http://www.w3.org/1999/xlink" x="0px" y="0px"
	 viewBox="0 0 2000 2000" style="enable-background:new 0 0 2000 2000;" xml:space="preserve">
<style type="text/css">
	.st0{fill:#0A172E;}
	.st1{fill:#134284;}
</style>
<g>
	<path class="st0" d="M42.4,600.3h92.1c18,0,27,9,27,27v352.4l145.2-356.4c6-15.3,18-23,36-23h85.1c17.4,0,26,9,26,27v652.8
		c0,18-8.7,27-26,27h-92.1c-18,0-27-9-27-27V926.7l-145.2,357.4c-6,15.4-18,23-36,23H42.4c-17.3,0-26-9-26-27V627.4
		C16.3,609.4,25,600.3,42.4,600.3z"/>
	<path class="st0" d="M1454,600.3h-163.2c-86.8,0-147.7,17.9-182.7,53.6c-35,35.7-52.6,100-52.6,192.7c0,60.8,8.7,108.3,26.2,142.3
		c17.5,34.1,44.3,58.1,80.5,72.2l-98.1,213.3c-10,21.9-4,32.8,18,32.8h98c18,0,30.3-7.6,37-22.8l84.7-198.4h28v194.2
		c0,18,9,27,27,27h97.1c17.4,0,26-9,26-27V627.4C1480.1,609.4,1471.4,600.3,1454,600.3z M1329.9,955.8h-40c-32.7,0-54.4-7.7-65.1-23
		c-10.7-15.3-16-44.1-16-86.1c0-42.7,5.5-71.7,16.5-87.1c11-15.3,33.2-23,66.6-23h38V955.8z"/>
	<path class="st0" d="M1957.6,600.3h-154.2c-90.1,0-155,25.5-194.7,76.6c-39.7,51.1-59.6,143.3-59.6,276.8
		c0,132.8,19.5,224.9,58.6,276.3c39,51.4,103.3,77.1,192.7,77.1h157.2c17.4,0,26-9,26-27V627.4
		C1983.7,609.4,1975,600.3,1957.6,600.3z M1833.5,1171h-33c-36.7,0-62.4-14.8-77.1-44.6c-14.7-29.7-22-87.3-22-172.7
		c0-86.1,7.7-143.8,23-173.2c15.4-29.4,41.7-44.1,79.1-44.1h30V1171z"/>
	<path class="st1" d="M953.9,730c-17.7-53.7-42.2-90.4-73.6-110.1c-31.4-19.7-73.4-29.5-126.2-29.5c-39.4,0-72.2,5.4-98.6,16
		C629.2,617,606,635.7,586,662.4c-20,26.7-34.5,63.9-43.6,111.6c-9,47.7-13.5,107.6-13.5,179.7c0,95.5,8.9,170,26.5,223.8
		c17.7,53.7,42.1,90.3,73.1,109.6c31,19.4,72.9,29,125.6,29c52.7,0,94.8-9.7,126.2-29c31.4-19.4,55.9-55.9,73.6-109.6
		c17.7-53.7,26.5-128.3,26.5-223.8C980.5,858.3,971.6,783.7,953.9,730z M846.7,1094.5c0,5.5-6.9,8-10.5,3.8l-80.4-95.1v91.3
		c0,5.5-6.9,8-10.5,3.8L626.1,957c-1.9-2.2-1.9-5.4,0-7.6l119.4-141.3c3.6-4.2,10.5-1.7,10.5,3.8v91.3l80.4-95.1
		c3.6-4.2,10.5-1.7,10.5,3.8V1094.5z"/>
</g>
<g>
	<g>
		<path class="st0" d="M41,1491.2H26.7c-0.6,0-1-0.3-1-0.8v-72.6c0-0.6,0.3-1,1-1h14.2c9.8,0,17.2,2.7,22.1,8.2
			c4.9,5.5,7.3,15.1,7.3,28.7c0,13.9-2.4,23.7-7.3,29.2C58.2,1488.5,50.8,1491.2,41,1491.2z M40.9,1420.7H29.8v66.8H41
			c4.2,0,7.7-0.5,10.7-1.5c2.9-1,5.5-2.7,7.7-5.2c2.2-2.5,3.9-5.9,5-10.4c1.1-4.5,1.6-10,1.6-16.6c0-6.4-0.5-11.8-1.6-16.2
			c-1.1-4.4-2.8-7.8-5-10.2s-4.9-4.2-7.8-5.1C48.6,1421.2,45.1,1420.7,40.9,1420.7z"/>
		<path class="st0" d="M136.9,1436.5h2.1c0.6,0,0.9,0.3,0.9,0.8v10.8c0.8-3.1,2.6-6,5.4-8.5s6.3-3.9,10.3-3.9c0.8,0,1.2,0.4,1.2,1.1
			v2.2c0,0.6-0.3,1-0.8,1c-0.1,0-0.4,0-0.9-0.1c-0.4,0-0.7-0.1-1-0.1c-3.8,0-7.1,1.9-9.9,5.7c-2.9,3.8-4.3,8.3-4.3,13.5v31.3
			c0,0.6-0.3,0.8-0.9,0.8h-2.1c-0.6,0-1-0.3-1-0.8v-53.1C136,1436.8,136.3,1436.5,136.9,1436.5z"/>
		<path class="st0" d="M234.4,1492.2c-13.5,0-20.3-9.5-20.3-28.4c0-18.9,6.8-28.3,20.3-28.3c13.4,0,20.2,9.4,20.2,28.3
			C254.5,1482.7,247.8,1492.2,234.4,1492.2z M234.4,1488.7c10.8,0,16.1-8.3,16.1-24.9c0-16.6-5.4-24.8-16.1-24.8
			c-10.9,0-16.3,8.3-16.3,24.8C218,1480.4,223.5,1488.7,234.4,1488.7z"/>
		<path class="st0" d="M355.9,1453.1v37.3c0,0.6-0.3,0.8-0.9,0.8h-2c-0.6,0-1-0.3-1-0.8v-37c0-9.6-4.1-14.3-12.4-14.3
			c-4.7,0-8.6,1.6-11.7,4.8c-3,3.2-4.6,7.3-4.6,12.4v34.2c0,0.6-0.3,0.8-0.8,0.8h-2c-0.6,0-1-0.3-1-0.8v-53.1c0-0.6,0.3-0.8,1-0.8h2
			c0.6,0,0.8,0.3,0.8,0.8v8.8c1.2-2.9,3.2-5.4,5.9-7.5c2.7-2.1,6.3-3.2,10.9-3.2c5.3,0,9.2,1.6,11.8,4.7
			C354.6,1443.2,355.9,1447.6,355.9,1453.1z"/>
		<path class="st0" d="M442.8,1488.8c5.3,0,9.3-0.8,12-2.4c0.4-0.4,0.8-0.1,1.1,0.6l0.5,1.5c0.1,0.4-0.1,0.8-0.7,1.2
			c-3.8,1.8-8.2,2.7-13.1,2.7c-14.5,0-21.8-9.5-21.8-28.5c0-18.9,6.5-28.3,19.5-28.3c6.2,0,10.8,2.3,13.8,6.9c3,4.6,4.5,10.9,4.5,19
			v3.5c0,0.6-0.3,0.8-0.8,0.8h-33c0.1,7.7,1.7,13.5,4.6,17.4C432.2,1486.9,436.7,1488.8,442.8,1488.8z M440.3,1438.8
			c-10.2,0-15.4,7.8-15.6,23.5h30v-1.1C454.8,1446.3,450,1438.8,440.3,1438.8z"/>
		<path class="st0" d="M607,1437.3v10.1c1.3-3.8,3.3-6.7,6.2-8.8c2.9-2.1,6.4-3.2,10.6-3.2c12.9,0,19.3,9.4,19.3,28.3
			c0,19-6.4,28.4-19.3,28.4c-4.2,0-7.7-1-10.6-3.1c-2.9-2.1-4.9-5-6.1-8.8v21.8c0,0.6-0.3,0.8-0.9,0.8h-2.1c-0.6,0-1-0.3-1-0.8
			v-64.7c0-0.6,0.3-0.8,1-0.8h2C606.7,1436.5,607,1436.8,607,1437.3z M607.1,1463.8c0,8.2,1.4,14.4,4.2,18.6
			c2.8,4.2,6.8,6.3,12.2,6.3c10.5,0,15.7-8.3,15.7-24.9c0-16.6-5.2-24.8-15.7-24.8c-5.3,0-9.4,2.1-12.2,6.3
			C608.5,1449.4,607.1,1455.6,607.1,1463.8z"/>
		<path class="st0" d="M744.9,1453.1v37.3c0,0.6-0.3,0.8-0.8,0.8h-2c-0.6,0-1-0.3-1-0.8v-36.9c0-9.6-4.2-14.4-12.5-14.4
			c-4.7,0-8.6,1.6-11.7,4.8c-3,3.2-4.6,7.3-4.6,12.3v34.2c0,0.6-0.3,1-0.8,1h-2.1c-0.6,0-1-0.3-1-0.8v-72.6c0-0.6,0.3-1,1-1h2.1
			c0.6,0,0.8,0.3,0.8,1v28.3c1.1-2.9,3-5.4,5.8-7.5c2.8-2.1,6.5-3.2,11-3.2c5.2,0,9.2,1.6,11.8,4.7
			C743.6,1443.3,744.9,1447.6,744.9,1453.1z"/>
		<path class="st0" d="M830,1492.2c-13.5,0-20.3-9.5-20.3-28.4c0-18.9,6.8-28.3,20.3-28.3c13.4,0,20.2,9.4,20.2,28.3
			C850.2,1482.7,843.5,1492.2,830,1492.2z M830,1488.7c10.8,0,16.1-8.3,16.1-24.9c0-16.6-5.4-24.8-16.1-24.8
			c-10.9,0-16.3,8.3-16.3,24.8C813.7,1480.4,819.1,1488.7,830,1488.7z"/>
		<path class="st0" d="M934,1440h-12.5v37c0,4.4,0.6,7.4,1.8,8.9c1.2,1.6,3.3,2.3,6.4,2.3c0.7,0,2.2-0.2,4.5-0.5
			c0.6-0.1,0.9,0.1,1,0.7l0.3,1.6c0.1,0.6-0.1,1-0.7,1.1c-1.7,0.4-3.5,0.6-5.3,0.6c-4.2,0-7.2-1.1-9-3.2c-1.8-2.1-2.7-5.9-2.7-11.2
			V1440h-7.2c-0.6,0-1-0.3-1-1v-1.7c0-0.6,0.3-0.8,1-0.8h7.3v-14.1c0-0.6,0.3-1,0.8-1h2c0.6,0,0.9,0.3,0.9,1v14.1H934
			c0.6,0,1,0.3,1,0.8v1.7C935,1439.7,934.7,1440,934,1440z"/>
		<path class="st0" d="M1014.9,1492.2c-13.5,0-20.3-9.5-20.3-28.4c0-18.9,6.8-28.3,20.3-28.3c13.4,0,20.2,9.4,20.2,28.3
			C1035.1,1482.7,1028.4,1492.2,1014.9,1492.2z M1014.9,1488.7c10.8,0,16.1-8.3,16.1-24.9c0-16.6-5.4-24.8-16.1-24.8
			c-10.9,0-16.3,8.3-16.3,24.8C998.6,1480.4,1004,1488.7,1014.9,1488.7z"/>
		<path class="st0" d="M1128.4,1477.4c0,4.7-1.4,8.4-4.3,10.9c-2.9,2.5-7.1,3.8-12.6,3.8c-5.5,0-10.2-0.8-13.9-2.3
			c-0.6-0.2-0.8-0.6-0.7-1.2l0.4-1.5c0.1-0.6,0.5-0.9,1.2-0.6c4.1,1.4,8.4,2.1,12.8,2.1c8.8,0,13.3-3.8,13.3-11.3
			c0-0.8-0.1-1.6-0.2-2.3c-0.1-0.7-0.3-1.4-0.7-2c-0.4-0.6-0.7-1.2-0.9-1.6c-0.2-0.5-0.7-1-1.4-1.5c-0.7-0.6-1.2-1-1.5-1.3
			c-0.3-0.3-0.9-0.7-2-1.2c-1-0.5-1.7-0.9-2.1-1.1c-0.3-0.2-1.1-0.6-2.4-1.3c-1.3-0.7-2-1.1-2.4-1.2c-5.1-2.5-8.4-4.5-9.9-5.9
			c-2.6-2.5-3.9-5.6-3.9-9.3c0-8.7,5.3-13.1,15.8-13.1c4.8,0,8.8,0.6,12,1.9c0.7,0.2,1,0.6,0.7,1.2l-0.4,1.6
			c-0.1,0.6-0.5,0.7-1.1,0.5c-3.8-1.2-7.4-1.8-10.9-1.8c-4.2,0-7.4,0.8-9.3,2.3c-2,1.6-3,4-3,7.3c0,1.6,0.2,3,0.7,4.2
			c0.5,1.2,1.5,2.3,2.9,3.3c1.4,1.1,2.6,1.8,3.5,2.3c0.9,0.5,2.6,1.3,5.1,2.6c5.5,2.8,9,5,10.6,6.4
			C1126.9,1469.9,1128.4,1473.3,1128.4,1477.4z"/>
		<path class="st0" d="M1322.5,1466c0,5.1-1.2,9.9-3.7,14.5l7.5,9.8c0.2,0.2,0.3,0.5,0.2,0.7c-0.1,0.2-0.3,0.3-0.6,0.3h-2.7
			c-0.6,0-1.3-0.4-2-1.3l-4.8-6.3c-4.8,5.6-11.7,8.5-20.8,8.5c-7.8,0-13.9-1.9-18.4-5.8c-4.5-3.9-6.7-9.4-6.7-16.4
			c0-5.5,1.5-10.4,4.6-14.7c3.1-4.3,7.4-7.2,12.9-8.7l-2.3-3c-4-5.4-5.9-10.2-5.9-14.3c0-8.8,5.5-13.3,16.6-13.3
			c4.1,0,7.7,0.6,10.7,1.8c0.6,0.4,0.9,0.7,0.8,1.2l-0.5,1.5c-0.2,0.6-0.7,0.8-1.4,0.6c-3-1.1-6.1-1.6-9.4-1.6
			c-8.6,0-12.9,3.2-12.9,9.7c0,3.5,1.9,7.8,5.8,12.9l27,35.2c1.5-3.4,2.3-7.2,2.3-11.4c0-1.2-0.2-3.3-0.7-6.4
			c-0.1-0.6,0.1-0.9,0.8-0.9h2c0.4,0,0.7,0.3,1,1C1322.2,1460.9,1322.5,1463.1,1322.5,1466z M1295.5,1488.5c8.5,0,14.7-2.6,18.5-7.9
			l-24-31.4c-5.1,1.4-8.9,4-11.6,7.7c-2.6,3.8-4,8-4,12.7c0,5.8,1.9,10.4,5.6,13.7C1283.9,1486.8,1289,1488.5,1295.5,1488.5z"/>
		<path class="st0" d="M1484.6,1491.2h-2.4c-0.6,0-0.9-0.3-1.1-0.8l-16.1-53c-0.2-0.6,0-1,0.7-1h2c0.4,0,0.8,0.3,1,1l10,34.1
			l4.3,14.6l0.6-0.1l4.3-14.5l10.1-34.2c0.2-0.6,0.6-0.8,1.1-0.8h2.2c0.6,0,0.9,0.3,0.6,1l-16.2,53
			C1485.5,1491,1485.2,1491.2,1484.6,1491.2z"/>
		<path class="st0" d="M1569.5,1419v8.3c0,0.6-0.3,0.8-0.8,0.8h-2.3c-0.6,0-1-0.3-1-0.8v-8.3c0-0.6,0.3-0.8,1-0.8h2.3
			C1569.2,1418.1,1569.5,1418.4,1569.5,1419z M1569.3,1437.3v53.1c0,0.6-0.3,0.8-0.7,0.8h-2.1c-0.6,0-1-0.3-1-0.8v-53.1
			c0-0.6,0.3-0.8,1-0.8h2.1C1569.1,1436.5,1569.3,1436.8,1569.3,1437.3z"/>
		<path class="st0" d="M1671.1,1490.4v-10.2c-1.2,3.8-3.2,6.7-6.1,8.8c-2.9,2.1-6.4,3.2-10.6,3.2c-6.4,0-11.2-2.4-14.4-7.3
			c-3.3-4.8-4.9-11.9-4.9-21.2c0-9.2,1.6-16.2,4.9-21.1c3.3-4.8,8.1-7.3,14.4-7.3c4.1,0,7.6,1.1,10.5,3.2c2.9,2.1,5,5.1,6.2,8.8
			v-29.6c0-0.6,0.3-1,0.9-1h2.1c0.6,0,1,0.3,1,1v72.6c0,0.6-0.3,0.8-1,0.8h-2.1C1671.4,1491.2,1671.1,1491,1671.1,1490.4z
			 M1671.2,1463.8c0-8.1-1.4-14.3-4.2-18.5c-2.8-4.2-6.9-6.3-12.2-6.3c-10.5,0-15.7,8.3-15.7,24.8c0,16.6,5.2,24.9,15.7,24.9
			c5.3,0,9.4-2.1,12.2-6.3C1669.8,1478.2,1671.2,1472,1671.2,1463.8z"/>
		<path class="st0" d="M1762.4,1488.8c5.3,0,9.3-0.8,12-2.4c0.4-0.4,0.8-0.1,1.1,0.6l0.5,1.5c0.1,0.4-0.1,0.8-0.7,1.2
			c-3.8,1.8-8.2,2.7-13.1,2.7c-14.5,0-21.8-9.5-21.8-28.5c0-18.9,6.5-28.3,19.5-28.3c6.2,0,10.8,2.3,13.8,6.9c3,4.6,4.5,10.9,4.5,19
			v3.5c0,0.6-0.3,0.8-0.8,0.8h-33c0.1,7.7,1.7,13.5,4.6,17.4C1751.8,1486.9,1756.3,1488.8,1762.4,1488.8z M1759.9,1438.8
			c-10.2,0-15.4,7.8-15.6,23.5h30v-1.1C1774.3,1446.3,1769.5,1438.8,1759.9,1438.8z"/>
		<path class="st0" d="M1860.8,1492.2c-13.5,0-20.3-9.5-20.3-28.4c0-18.9,6.8-28.3,20.3-28.3c13.4,0,20.2,9.4,20.2,28.3
			C1881,1482.7,1874.3,1492.2,1860.8,1492.2z M1860.8,1488.7c10.8,0,16.1-8.3,16.1-24.9c0-16.6-5.4-24.8-16.1-24.8
			c-10.9,0-16.3,8.3-16.3,24.8C1844.5,1480.4,1849.9,1488.7,1860.8,1488.7z"/>
		<path class="st0" d="M1974.3,1477.4c0,4.7-1.4,8.4-4.3,10.9c-2.9,2.5-7.1,3.8-12.6,3.8c-5.5,0-10.2-0.8-13.9-2.3
			c-0.6-0.2-0.8-0.6-0.7-1.2l0.4-1.5c0.1-0.6,0.5-0.9,1.2-0.6c4.1,1.4,8.4,2.1,12.8,2.1c8.8,0,13.3-3.8,13.3-11.3
			c0-0.8-0.1-1.6-0.2-2.3c-0.1-0.7-0.3-1.4-0.7-2c-0.4-0.6-0.7-1.2-0.9-1.6c-0.2-0.5-0.7-1-1.4-1.5c-0.7-0.6-1.2-1-1.5-1.3
			c-0.3-0.3-0.9-0.7-2-1.2c-1-0.5-1.7-0.9-2.1-1.1c-0.3-0.2-1.1-0.6-2.4-1.3c-1.3-0.7-2-1.1-2.4-1.2c-5.1-2.5-8.4-4.5-9.9-5.9
			c-2.6-2.5-3.9-5.6-3.9-9.3c0-8.7,5.3-13.1,15.8-13.1c4.8,0,8.8,0.6,12,1.9c0.7,0.2,1,0.6,0.7,1.2l-0.4,1.6
			c-0.1,0.6-0.5,0.7-1.1,0.5c-3.8-1.2-7.4-1.8-10.9-1.8c-4.2,0-7.4,0.8-9.3,2.3c-2,1.6-3,4-3,7.3c0,1.6,0.2,3,0.7,4.2
			c0.5,1.2,1.5,2.3,2.9,3.3c1.4,1.1,2.6,1.8,3.5,2.3c0.9,0.5,2.6,1.3,5.1,2.6c5.5,2.8,9,5,10.6,6.4
			C1972.8,1469.9,1974.3,1473.3,1974.3,1477.4z"/>
	</g>
</g>
</svg>
