<?xml version="1.0" encoding="utf-8"?>
<!-- Generator: Adobe Illustrator 24.0.2, SVG Export Plug-In . SVG Version: 6.00 Build 0)  -->
<svg version="1.1"
	 id="svg2" xmlns:cc="http://creativecommons.org/ns#" xmlns:dc="http://purl.org/dc/elements/1.1/" xmlns:inkscape="http://www.inkscape.org/namespaces/inkscape" xmlns:rdf="http://www.w3.org/1999/02/22-rdf-syntax-ns#" xmlns:sodipodi="http://sodipodi.sourceforge.net/DTD/sodipodi-0.dtd" xmlns:svg="http://www.w3.org/2000/svg"
	 xmlns="http://www.w3.org/2000/svg" xmlns:xlink="http://www.w3.org/1999/xlink" x="0px" y="0px" viewBox="0 0 500 375"
	 style="enable-background:new 0 0 500 375;" xml:space="preserve">
<style type="text/css">
	.st0{opacity:0.8;fill:#232323;}
	.st1{fill:#FFFFFF;}
</style>
<path id="rect2989-7" class="st0" d="M250.5,1.9c0,0-103.5,0-172.5,5.3c-9.6,1.2-30.7,1.3-49.4,22.3C13.7,45.5,8.9,81.8,8.9,81.8
	S4,124.4,4,166.9v39.9C4,249.5,8.9,292,8.9,292s4.8,36.3,19.6,52.2c18.8,20.9,43.4,20.3,54.4,22.5c39.5,4,167.7,5.3,167.7,5.3
	s103.7-0.2,172.7-5.5c9.6-1.2,30.7-1.3,49.5-22.3c14.8-15.9,19.5-52.3,19.5-52.3s5-42.5,5-85.1V167c0-42.6-5-85.2-5-85.2
	s-4.8-36.2-19.5-52.2C454,8.6,433,8.4,423.3,7.3C354.3,1.9,250.8,2,250.8,2h-0.3V1.9z M189,94.4L343.3,187L189,279.5V94.4z"/>
<polygon class="st1" points="343.3,187 189,94.4 189,279.5 "/>
</svg>
